#!OML:ASF F:\VICON\USERDATA\INSTALL\rory3\rory3.ASF
:FULLY-SPECIFIED
:DEGREES
63
root 0.8632907040194732 17.90754083531844 27.341432656820885 -3.1091302718437177 -0.8598316295504123 2.959104219943765
lfemur 2.498190978910273 -3.341628552834586 -28.241648195008928
ltibia 22.54858259902501
lfoot -15.79549820745152 4.675679389284294
ltoes 2.1621836531993766
rfemur -29.94443079369269 -0.2349071122374129 19.51617810163192
rtibia 54.385494684871645
rfoot -8.926004112658438 -10.180007007895954
rtoes 1.401514198402268
lowerback 10.309108456906495 -0.056838201861420634 -2.8977489627449557
upperback 0.7477089398250438 -0.40070076679068967 0.7499740418437154
thorax -4.936918098120746 -0.12383410199914968 2.6747606130805703
lowerneck -16.389841247786926 -2.616020396093248 -2.510587906610005
upperneck 20.533104230671803 -3.2962397075223526 1.2892620145760727
head 9.231823644830037 -1.6032899417980266 0.45031254121050146
lclavicle -9.441080757650795e-16 1.836274528436421e-15
lhumerus -25.00838854038875 -3.3458324422603045 83.30218694277413
lradius 26.075900372352827
lwrist 5.352375018130824
lhand -26.9390333487935 23.791732640204128
lfingers 7.12502
lthumb -0.36113936540527114 53.77259475039989
rclavicle -9.441080757650795e-16 1.836274528436421e-15
rhumerus -29.327554889916037 -18.455994480615903 -79.52204920523754
rradius 25.911837682500728
rwrist 4.910242245694253
rhand -17.283542259867172 22.580040675683694
rfingers 7.12502
rthumb 8.961622312501415 -7.20824236246934
64
root 0.839036369566955 17.88484813034959 28.18802797368552 -2.378069657692797 -0.12544431998408356 3.5491073164937528
lfemur 6.248564855076502 -2.7977269308312294 -28.665003720925803
ltibia 18.415379062649297
lfoot -16.01151344178203 4.2099971710817785
ltoes 1.7914414052259136
rfemur -30.427675430809977 1.4485672698381031 18.196726030175867
rtibia 41.64874392139479
rfoot -8.303636830984974 -13.681627726443718
rtoes 0.2956897280933295
lowerback 9.971277533720933 -0.37255218202979334 -3.686749282128993
upperback 0.7162176464679728 -0.8971201030640019 0.7889899023579274
thorax -4.76837030203566 -0.3572331008189016 3.21489430377417
lowerneck -16.475545888426037 -2.6344142411304463 -2.5923420292889108
upperneck 20.408012374554126 -3.324314310146402 1.4218161010627193
head 9.203164902697957 -1.6097406657441575 0.500653164319673
lclavicle -8.124972414217672e-16 1.9572695213739153e-15
lhumerus -22.565791627875655 -4.699978126042382 83.06690666269755
lradius 27.608176969380896
lwrist 6.380340306393006
lhand -26.822342553506676 24.58978104199959
lfingers 7.12502
lthumb -0.24851471009070092 54.56929455452283
rclavicle -8.12497241421767e-16 1.9572695213739153e-15
rhumerus -29.807901735601277 -18.390187271006344 -79.34533292926889
rradius 25.897238426037884
rwrist 4.86603488770805
rhand -17.10524382838864 22.92822017384373
rfingers 7.12502
rthumb 9.133655187488705 -6.851506067361362
65
root 0.7792043352152671 17.841809984064803 28.589246450724048 -1.6265812444067753 0.6040832789435902 3.9573023231493507
lfemur 9.674919910654232 -2.47314795788776 -28.95163604551786
ltibia 13.884321054195148
lfoot -16.10366485895552 3.2648912234839758
ltoes 0.06412109418765466
rfemur -30.19240680169446 3.696253566654841 16.368705341048976
rtibia 28.2202112636374
rfoot -8.411870573760755 -17.26177965204107
rtoes -1.3973162518096705
lowerback 9.607888391944376 -0.7269109584010728 -4.525924674739002
upperback 0.5831321906855378 -1.443225284417681 0.8127757278667764
thorax -4.66492897134734 -0.6126735646583321 3.6679997610528274
lowerneck -16.620207326707696 -2.661585723616865 -2.636658696757462
upperneck 20.33874024156272 -3.367563824077948 1.5367898628706531
head 9.201974382427416 -1.6226935090912324 0.5356856631561713
lclavicle -1.1217452278576956e-15 1.6722709504408374e-15
lhumerus -20.62896341004563 -5.661312827280623 82.672886645914
lradius 28.8700419457265
lwrist 7.109938856782399
lhand -26.64021576504785 24.845464481662944
lfingers 7.12502
lthumb -0.07271016232365746 54.819918623010686
rclavicle -1.1217452278576958e-15 1.6722709504408374e-15
rhumerus -30.415996469925553 -18.93540530622744 -79.01357432915755
rradius 25.446631288771226
rwrist 5.190493180339394
rhand -17.048851217942396 23.37853121525303
rfingers 7.12502
rthumb 9.188067670502024 -6.397482989225344
66
root 0.7033417884913464 17.78443256530469 28.87747468540828 -1.0320079171573942 1.3431652254109987 4.252283254340146
lfemur 13.151701516475669 -2.5083641229240996 -28.88383541378705
ltibia 10.962399794376992
lfoot -16.173285763256647 2.1525672669827456
ltoes -2.49397121477016
rfemur -29.235010466750612 5.705252526886142 15.087217104055048
rtibia 18.58447613960903
rfoot -8.467914574080746 -18.82741097080646
rtoes -2.6838801429207524
lowerback 9.294266081417778 -1.0027503804037763 -5.128121680386928
upperback 0.44231900228773624 -1.8589150066032616 0.8753265803607861
thorax -4.580486548495695 -0.8072927534574783 4.077976073842939
lowerneck -16.6254474762299 -2.671896079620576 -2.643138664158398
upperneck 20.267263573181236 -3.395751511942706 1.6282182054842647
head 9.177931671283755 -1.6282950308070678 0.5617793034779087
lclavicle -1.1279937772913653e-15 1.6667755466532592e-15
lhumerus -19.086770152493507 -6.270572333216375 82.39775652122105
lradius 29.94962306940929
lwrist 7.692362022186481
lhand -27.05118824045553 24.398140101543373
lfingers 7.12502
lthumb -0.4696074404497954 54.370401887534285
rclavicle -1.1279937772913653e-15 1.666775546653259e-15
rhumerus -31.019782931612205 -19.92664363992722 -78.40612586936913
rradius 24.715045323143862
rwrist 6.029590627421798
rhand -17.174681754402833 23.326408993537587
rfingers 7.12502
rthumb 9.066659825935778 -6.454652184603398
